<svg id="visual" viewBox="0 0 1920 200" width="1920" height="200" xmlns="http://www.w3.org/2000/svg" xmlns:xlink="http://www.w3.org/1999/xlink" version="1.1"><rect x="0" y="0" width="1920" height="200" fill="#010c1e"></rect><path d="M0 75L24.7 73.8C49.3 72.7 98.7 70.3 147.8 66.3C197 62.3 246 56.7 295.2 54.7C344.3 52.7 393.7 54.3 443 57C492.3 59.7 541.7 63.3 590.8 62.3C640 61.3 689 55.7 738.2 53.3C787.3 51 836.7 52 886 53.8C935.3 55.7 984.7 58.3 1034 56.8C1083.3 55.3 1132.7 49.7 1181.8 50.5C1231 51.3 1280 58.7 1329.2 58.5C1378.3 58.3 1427.7 50.7 1477 49.5C1526.3 48.3 1575.7 53.7 1624.8 56.7C1674 59.7 1723 60.3 1772.2 62.7C1821.3 65 1870.7 69 1895.3 71L1920 73L1920 201L1895.3 201C1870.7 201 1821.3 201 1772.2 201C1723 201 1674 201 1624.8 201C1575.7 201 1526.3 201 1477 201C1427.7 201 1378.3 201 1329.2 201C1280 201 1231 201 1181.8 201C1132.7 201 1083.3 201 1034 201C984.7 201 935.3 201 886 201C836.7 201 787.3 201 738.2 201C689 201 640 201 590.8 201C541.7 201 492.3 201 443 201C393.7 201 344.3 201 295.2 201C246 201 197 201 147.8 201C98.7 201 49.3 201 24.7 201L0 201Z" fill="#010c1e"></path><path d="M0 74L24.7 79C49.3 84 98.7 94 147.8 98.2C197 102.3 246 100.7 295.2 95.3C344.3 90 393.7 81 443 76C492.3 71 541.7 70 590.8 71C640 72 689 75 738.2 80.2C787.3 85.3 836.7 92.7 886 95.3C935.3 98 984.7 96 1034 96.7C1083.3 97.3 1132.7 100.7 1181.8 100.8C1231 101 1280 98 1329.2 93.2C1378.3 88.3 1427.7 81.7 1477 83.3C1526.3 85 1575.7 95 1624.8 99.5C1674 104 1723 103 1772.2 102.8C1821.3 102.7 1870.7 103.3 1895.3 103.7L1920 104L1920 201L1895.3 201C1870.7 201 1821.3 201 1772.2 201C1723 201 1674 201 1624.8 201C1575.7 201 1526.3 201 1477 201C1427.7 201 1378.3 201 1329.2 201C1280 201 1231 201 1181.8 201C1132.7 201 1083.3 201 1034 201C984.7 201 935.3 201 886 201C836.7 201 787.3 201 738.2 201C689 201 640 201 590.8 201C541.7 201 492.3 201 443 201C393.7 201 344.3 201 295.2 201C246 201 197 201 147.8 201C98.7 201 49.3 201 24.7 201L0 201Z" fill="#091225"></path><path d="M0 108L24.7 108.3C49.3 108.7 98.7 109.3 147.8 111.7C197 114 246 118 295.2 120.7C344.3 123.3 393.7 124.7 443 122C492.3 119.3 541.7 112.7 590.8 111C640 109.3 689 112.7 738.2 115C787.3 117.3 836.7 118.7 886 119C935.3 119.3 984.7 118.7 1034 119.3C1083.3 120 1132.7 122 1181.8 124C1231 126 1280 128 1329.2 123.3C1378.3 118.7 1427.7 107.3 1477 101.5C1526.3 95.7 1575.7 95.3 1624.8 101C1674 106.7 1723 118.3 1772.2 120.8C1821.3 123.3 1870.7 116.7 1895.3 113.3L1920 110L1920 201L1895.3 201C1870.7 201 1821.3 201 1772.2 201C1723 201 1674 201 1624.8 201C1575.7 201 1526.3 201 1477 201C1427.7 201 1378.3 201 1329.2 201C1280 201 1231 201 1181.8 201C1132.7 201 1083.3 201 1034 201C984.7 201 935.3 201 886 201C836.7 201 787.3 201 738.2 201C689 201 640 201 590.8 201C541.7 201 492.3 201 443 201C393.7 201 344.3 201 295.2 201C246 201 197 201 147.8 201C98.7 201 49.3 201 24.7 201L0 201Z" fill="#0f172c"></path><path d="M0 142L24.7 140.7C49.3 139.3 98.7 136.7 147.8 138.2C197 139.7 246 145.3 295.2 145.5C344.3 145.7 393.7 140.3 443 139.8C492.3 139.3 541.7 143.7 590.8 145.8C640 148 689 148 738.2 145.7C787.3 143.3 836.7 138.7 886 137.2C935.3 135.7 984.7 137.3 1034 136.3C1083.3 135.3 1132.7 131.7 1181.8 131.5C1231 131.3 1280 134.7 1329.2 135.2C1378.3 135.7 1427.7 133.3 1477 132.3C1526.3 131.3 1575.7 131.7 1624.8 130.8C1674 130 1723 128 1772.2 126.8C1821.3 125.7 1870.7 125.3 1895.3 125.2L1920 125L1920 201L1895.3 201C1870.7 201 1821.3 201 1772.2 201C1723 201 1674 201 1624.8 201C1575.7 201 1526.3 201 1477 201C1427.7 201 1378.3 201 1329.2 201C1280 201 1231 201 1181.8 201C1132.7 201 1083.3 201 1034 201C984.7 201 935.3 201 886 201C836.7 201 787.3 201 738.2 201C689 201 640 201 590.8 201C541.7 201 492.3 201 443 201C393.7 201 344.3 201 295.2 201C246 201 197 201 147.8 201C98.7 201 49.3 201 24.7 201L0 201Z" fill="#161c34"></path><path d="M0 156L24.7 156.5C49.3 157 98.7 158 147.8 161.3C197 164.7 246 170.3 295.2 170C344.3 169.7 393.7 163.3 443 161.3C492.3 159.3 541.7 161.7 590.8 161.8C640 162 689 160 738.2 162.2C787.3 164.3 836.7 170.7 886 170.2C935.3 169.7 984.7 162.3 1034 160.2C1083.3 158 1132.7 161 1181.8 160.5C1231 160 1280 156 1329.2 155.2C1378.3 154.3 1427.7 156.7 1477 158.3C1526.3 160 1575.7 161 1624.8 160.8C1674 160.7 1723 159.3 1772.2 158.3C1821.3 157.3 1870.7 156.7 1895.3 156.3L1920 156L1920 201L1895.3 201C1870.7 201 1821.3 201 1772.2 201C1723 201 1674 201 1624.8 201C1575.7 201 1526.3 201 1477 201C1427.7 201 1378.3 201 1329.2 201C1280 201 1231 201 1181.8 201C1132.7 201 1083.3 201 1034 201C984.7 201 935.3 201 886 201C836.7 201 787.3 201 738.2 201C689 201 640 201 590.8 201C541.7 201 492.3 201 443 201C393.7 201 344.3 201 295.2 201C246 201 197 201 147.8 201C98.7 201 49.3 201 24.7 201L0 201Z" fill="#1e203b"></path></svg>